<?xml version="1.0" standalone="no"?>
<!DOCTYPE svg PUBLIC "-//W3C//DTD SVG 20010904//EN"
 "http://www.w3.org/TR/2001/REC-SVG-20010904/DTD/svg10.dtd">
<svg version="1.0" xmlns="http://www.w3.org/2000/svg"
 width="512.000000pt" height="512.000000pt" viewBox="0 0 512.000000 512.000000"
 preserveAspectRatio="xMidYMid meet">
<metadata>
Created by potrace 1.11, written by Peter Selinger 2001-2013
</metadata>
<g transform="translate(0.000000,512.000000) scale(0.100000,-0.100000)"
fill="#000000" stroke="none">
<path d="M4360 4603 c-637 -45 -1179 -280 -1711 -741 -148 -128 -462 -450
-617 -633 l-132 -156 -128 -7 c-553 -29 -888 -197 -1096 -548 -51 -87 -127
-258 -148 -333 -18 -63 -13 -89 19 -115 25 -19 40 -20 361 -20 l336 0 43 -42
43 -42 -150 -151 c-142 -143 -150 -154 -150 -190 0 -31 7 -47 36 -76 l36 -37
-77 -36 c-289 -134 -469 -408 -506 -770 -10 -98 -9 -116 4 -143 26 -49 60 -57
187 -44 310 33 555 170 706 397 30 45 54 84 54 87 0 3 9 27 20 53 l21 47 37
-36 c30 -30 45 -37 77 -37 36 0 47 8 190 150 l151 150 42 -43 42 -43 0 -340
c0 -328 1 -341 20 -362 33 -35 59 -35 155 -2 346 123 574 310 700 575 84 179
144 480 145 727 0 56 0 57 53 99 789 650 1232 1253 1397 1903 51 202 68 309
82 511 17 258 8 266 -242 248z m70 -226 c0 -29 -6 -104 -14 -167 -62 -496
-256 -922 -628 -1382 -177 -219 -561 -584 -913 -869 -197 -159 -720 -559 -732
-559 -4 0 -175 168 -379 372 l-372 373 150 195 c218 286 439 566 536 683 593
709 1096 1099 1661 1287 215 71 450 117 619 119 l72 1 0 -53z m-2780 -2732
l195 -195 -112 -112 -113 -112 -197 197 -198 197 110 110 c60 60 112 110 115
110 3 0 93 -88 200 -195z m-341 -339 l43 -44 -12 -52 c-36 -150 -214 -291
-399 -316 -47 -6 -51 -5 -51 14 0 97 68 250 145 327 58 57 94 80 160 101 61
19 67 17 114 -30z"/>
<path d="M3205 3736 c-102 -32 -190 -100 -242 -187 -103 -172 -75 -387 69
-526 227 -219 603 -129 699 169 17 55 21 85 17 160 -5 115 -33 183 -110 264
-92 97 -179 134 -313 133 -44 0 -98 -6 -120 -13z m225 -177 c212 -96 197 -402
-24 -475 -119 -40 -251 18 -312 136 -25 49 -25 162 1 214 25 52 78 104 129
127 56 25 148 25 206 -2z"/>
</g>
</svg>
